<?xml version="1.0" encoding="UTF-8" standalone="no"?>
<svg
   width="1003"
   height="265"
   viewBox="0 0 1003 265"
   fill="none"
   version="1.1"
   id="svg21"
   sodipodi:docname="newlogo.svg"
   xml:space="preserve"
   inkscape:version="1.2.2 (732a01da63, 2022-12-09)"
   xmlns:inkscape="http://www.inkscape.org/namespaces/inkscape"
   xmlns:sodipodi="http://sodipodi.sourceforge.net/DTD/sodipodi-0.dtd"
   xmlns="http://www.w3.org/2000/svg"
   xmlns:svg="http://www.w3.org/2000/svg"><sodipodi:namedview
     id="namedview23"
     pagecolor="#505050"
     bordercolor="#eeeeee"
     borderopacity="1"
     inkscape:showpageshadow="0"
     inkscape:pageopacity="0"
     inkscape:pagecheckerboard="0"
     inkscape:deskcolor="#505050"
     showgrid="false"
     inkscape:zoom="0.43286498"
     inkscape:cx="-487.44992"
     inkscape:cy="291.08384"
     inkscape:window-width="1366"
     inkscape:window-height="745"
     inkscape:window-x="-8"
     inkscape:window-y="-8"
     inkscape:window-maximized="1"
     inkscape:current-layer="svg21" /><defs
     id="defs19"><clipPath
       id="clip0_58_32"><rect
         width="1003"
         height="265"
         fill="white"
         id="rect16" /></clipPath></defs><path
     d="M180.83 252.355C174.093 240.172 162.913 221.538 147.29 196.455L122.135 221.395V252.355H68.6C69.7467 224.548 70.32 198.533 70.32 174.31C70.32 150.087 69.7467 124.072 68.6 96.2649H122.135V159.26C148.508 133.173 167.285 112.175 178.465 96.2649H248.125L180.4 163.345C190.433 177.392 201.685 192.657 214.155 209.14C226.768 225.623 238.163 240.028 248.34 252.355H180.83ZM315.457 254.505C290.947 254.505 272.887 248.915 261.277 237.735C249.81 226.412 244.077 211.577 244.077 193.23C244.077 175.313 249.81 160.765 261.277 149.585C272.887 138.405 290.947 132.815 315.457 132.815C331.94 132.815 345.7 135.538 356.737 140.985C367.917 146.288 376.159 153.527 381.462 162.7C386.765 171.73 389.417 181.907 389.417 193.23C389.417 211.72 383.254 226.555 370.927 237.735C358.744 248.915 340.254 254.505 315.457 254.505ZM316.317 217.955C325.634 217.955 332.585 215.733 337.172 211.29C341.759 206.847 344.052 200.898 344.052 193.445C344.052 186.422 341.759 180.688 337.172 176.245C332.585 171.658 325.634 169.365 316.317 169.365C307 169.365 300.192 171.587 295.892 176.03C291.592 180.473 289.442 186.278 289.442 193.445C289.442 200.898 291.592 206.847 295.892 211.29C300.192 215.733 307 217.955 316.317 217.955ZM488.388 252.355C489.248 231.285 489.678 211.863 489.678 194.09C489.678 187.783 488.101 182.767 484.948 179.04C481.938 175.313 478.068 173.45 473.338 173.45C468.608 173.45 464.594 175.6 461.298 179.9C458.001 184.057 456.066 189.79 455.493 197.1C455.206 207.993 455.063 215.733 455.063 220.32C455.063 230.067 455.349 240.745 455.923 252.355H404.538C405.684 231.715 406.258 212.222 406.258 193.875C406.258 175.528 405.684 155.892 404.538 134.965C413.998 135.395 421.236 135.61 426.253 135.61C431.556 135.61 438.794 135.395 447.968 134.965L454.203 166.57C457.499 155.103 462.659 146.647 469.683 141.2C476.706 135.61 484.876 132.815 494.193 132.815C502.793 132.815 510.246 134.75 516.553 138.62C522.859 142.347 527.589 147.435 530.743 153.885C534.039 160.335 535.688 167.573 535.688 175.6V206.56C535.688 225.623 536.046 240.888 536.763 252.355H488.388ZM651.425 173.45C638.238 172.59 626.198 171.945 615.305 171.515L615.09 194.305C615.09 202.045 616.738 208.137 620.035 212.58C623.475 216.88 629.495 219.03 638.095 219.03C641.391 219.03 644.545 218.743 647.555 218.17C646.981 223.473 646.695 228.848 646.695 234.295C646.695 236.875 646.838 242.752 647.125 251.925C640.818 253.072 635.515 253.788 631.215 254.075C626.915 254.362 621.325 254.505 614.445 254.505C597.675 254.505 585.778 250.492 578.755 242.465C571.875 234.295 568.435 222.972 568.435 208.495L568.65 172.16C561.913 172.447 554.89 172.877 547.58 173.45V135.395C555.033 135.395 561.34 133.03 566.5 128.3C571.66 123.57 574.741 117.908 575.745 111.315H634.225C626.915 121.348 618.816 129.375 609.93 135.395H651.425V173.45ZM714.139 166.785C720.159 145.142 735.138 134.32 759.074 134.32C763.231 134.32 767.244 134.607 771.114 135.18L764.234 183.34C753.914 179.47 745.458 177.535 738.864 177.535C730.694 177.535 724.674 179.972 720.804 184.845C716.934 189.718 714.999 196.24 714.999 204.41V204.195L714.784 218.385C714.784 228.562 715.071 239.885 715.644 252.355H664.259C665.406 231.715 665.979 212.222 665.979 193.875C665.979 175.528 665.406 155.892 664.259 134.965C673.719 135.395 680.958 135.61 685.974 135.61C691.278 135.61 698.516 135.395 707.689 134.965L714.139 166.785ZM851.067 254.505C826.557 254.505 808.497 248.915 796.887 237.735C785.421 226.412 779.687 211.577 779.687 193.23C779.687 175.313 785.421 160.765 796.887 149.585C808.497 138.405 826.557 132.815 851.067 132.815C867.551 132.815 881.311 135.538 892.347 140.985C903.527 146.288 911.769 153.527 917.072 162.7C922.376 171.73 925.027 181.907 925.027 193.23C925.027 211.72 918.864 226.555 906.537 237.735C894.354 248.915 875.864 254.505 851.067 254.505ZM851.927 217.955C861.244 217.955 868.196 215.733 872.782 211.29C877.369 206.847 879.662 200.898 879.662 193.445C879.662 186.422 877.369 180.688 872.782 176.245C868.196 171.658 861.244 169.365 851.927 169.365C842.611 169.365 835.802 171.587 831.502 176.03C827.202 180.473 825.052 186.278 825.052 193.445C825.052 200.898 827.202 206.847 831.502 211.29C835.802 215.733 842.611 217.955 851.927 217.955ZM990.673 166.355C990.53 174.955 990.458 188.142 990.458 205.915C990.458 227.272 990.601 242.752 990.888 252.355H940.148L940.363 228.06C940.65 201.4 940.793 180.832 940.793 166.355C940.793 152.595 940.65 133.102 940.363 107.875L940.148 84.6549H990.888C990.601 105.008 990.458 121.635 990.458 134.535C990.458 148.868 990.53 159.475 990.673 166.355Z"
     fill="#F5F5F7"
     id="path2"
     inkscape:label="Kontrol" /><path
     id="path1031-5"
     style="fill:#0ba355;fill-opacity:1;stroke-width:0.0925666"
     d="m 114.21201,4.7480053 c -1.52446,-0.2488217 -2.60578,-0.1794668 -3.04546,0.2833532 -0.46284,0.3702172 -0.74035,4.9988065 -0.74035,10.3676355 0,8.793775 -0.18577,9.627007 -1.57427,8.979078 -12.403869,-4.7209 -31.008874,-6.387169 -43.59788,-3.79526 -36.656213,7.405315 -62.5747957,39.988701 -62.4822219,78.773953 0,11.385585 1.2032737,19.161705 4.535646,28.696005 2.8695619,8.23836 3.4250529,8.70137 6.5722969,6.20207 5.646541,-4.5357 12.588482,-8.70225 18.88297,-11.20146 5.924242,-2.4067 6.849639,-3.14645 9.44149,-7.49704 1.666201,-2.77702 3.425675,-5.09092 3.981079,-5.27603 0.647967,-0.18511 1.665919,2.77585 2.499004,7.21904 0.92567,4.16557 2.221507,8.42365 3.147167,9.34929 3.147254,3.51755 8.238673,1.38934 11.385927,-4.72002 2.591851,-4.99861 -2.128671,-26.567115 -7.03468,-32.491367 -3.05468,-3.517452 -4.9994,-3.517841 -9.164867,0.09241 -3.424946,3.054729 -3.795387,4.443189 -0.648143,2.777018 1.018233,-0.555423 2.592035,-0.740143 3.425131,-0.462431 1.943893,0.833134 4.628132,6.201574 6.294323,12.95886 2.314149,9.2566 2.59258,12.86714 1.204081,14.81102 -1.573617,2.03649 -1.666736,1.94379 -3.332927,-6.57228 -1.573617,-7.96064 -4.257331,-13.329173 -7.126883,-13.977102 -4.165468,-1.110846 -10.645299,2.314492 -13.144575,6.850282 -1.666191,3.05463 -2.591861,3.88689 -4.165488,3.70168 -4.350615,-0.64793 0.184866,-10.459067 9.44149,-20.363688 10.274848,-11.01537 19.161401,-10.368122 24.252538,1.572985 1.018224,2.3141 2.128388,4.165477 2.591228,4.165477 0.46282,0 4.350878,-0.924862 8.608929,-1.943104 9.904573,-2.591812 29.806875,-2.870107 38.045265,-0.55591 11.47819,3.147235 15.70101,6.022205 15.93513,10.82997 0.66993,4.26712 2.77536,6.63803 6.00278,6.48006 1.01598,-0.0681 3.12277,0.27314 4.51127,-0.93011 2.40671,-2.12909 2.52342,-3.9757 2.52342,-10.918196 0,-8.238352 -0.74026,-9.626618 -8.05299,-14.995447 l -3.42513,-2.500376 6.94246,-0.648123 c 13.88492,-1.295954 30.91731,-7.867649 38.13749,-14.717541 2.40669,-2.3141 2.96274,-3.610152 2.96274,-6.572278 0,-8.886378 -14.53301,-27.76959 -23.23423,-30.268896 -2.68441,-0.740532 -5.92459,-2.869037 -9.62724,-6.386489 -3.05469,-2.962126 -7.86857,-6.75797 -10.64558,-8.516744 C 127.34222,9.1051086 118.78536,5.4944704 114.21201,4.7481998 Z M 81.551219,24.344124 c 6.216759,-0.08171 12.313396,0.529646 17.69381,1.883478 9.812001,2.499306 12.774401,4.073944 12.774401,7.03607 0,1.758677 -0.43162,2.49775 -1.44985,2.03493 C 99.745022,31.871224 88.864145,28.717667 76.590884,29.983272 63.506529,31.594485 51.883278,35.890015 41.760846,43.815638 31.563387,51.907499 26.346546,61.368073 19.360522,76.213332 l -2.592571,7.868621 5.553977,0.55591 c 6.016796,0.648026 7.683629,1.573666 7.128236,4.165575 -0.277702,1.38846 -1.203196,1.758288 -4.905844,1.850793 -7.49784,0.09241 -8.79469,0.277323 -8.79469,1.480772 0,1.295857 -3.702832,5.36951 -4.813629,5.36951 -0.92566,0 -0.277333,-8.70127 1.296295,-16.661911 3.887775,-20.827387 20.364343,-41.562853 39.98835,-50.541737 8.273098,-3.760534 18.969318,-5.821046 29.330573,-5.956741 z m 71.301311,9.851025 c 1.26412,0.201255 2.56039,0.619719 3.85632,1.290896 3.42495,1.758774 6.00415,4.380059 6.00415,7.064474 0,0.53519 0.17066,1.774824 0.55459,2.726825 0.47928,1.188469 1.23388,2.083566 1.74783,2.391918 1.27565,1.334863 5.81703,5.774356 5.81703,6.977707 0,0.277712 -4.86715,0.740629 -10.60626,1.01834 -12.0336,0.647929 -15.36492,-0.276836 -18.32703,-5.090242 -5.18371,-8.504585 2.10463,-17.788514 10.95337,-16.379918 z m 1.41428,5.499757 c -0.27699,0.111182 -0.33494,0.651527 -0.33494,1.530866 0,2.406703 -2.31415,4.3501 -4.16548,3.609568 -0.74054,-0.277711 -1.3885,-1.388265 -1.3885,-2.499014 0,-1.666269 -0.18513,-1.758288 -1.3885,-0.832551 -2.86587,3.364249 -0.12597,10.037398 4.8177,9.323519 1.99076,-0.287536 3.19747,-0.854437 4.36887,-2.010904 1.88393,-1.860034 1.98987,-5.824743 -0.25627,-8.081452 -0.87939,-0.833135 -1.37591,-1.151214 -1.65288,-1.040032 z m -29.27363,21.055198 c 0.43968,0.07684 1.19169,0.400275 2.27934,1.02515 1.66619,1.018145 4.81381,2.221594 6.85026,2.77692 3.05469,0.833134 5.36929,0.740629 10.64558,-0.37012 3.79521,-0.833134 10.83017,-1.666755 15.6436,-1.944467 l 8.79335,-0.370217 -2.31326,1.852253 c -6.20192,4.998612 -21.84673,7.867746 -30.27024,5.646249 -2.12902,-0.555423 -5.64601,-2.40719 -7.77503,-4.073361 -3.67951,-2.77692 -5.17268,-4.772358 -3.8536,-4.542407 z m -14.19683,10.374348 c 2.49929,0 4.72089,0.555034 5.55399,1.480771 2.31415,2.3141 1.85124,2.777406 -3.7953,3.703047 -7.59042,1.203351 -7.12787,3.053853 1.11051,5.090242 8.42353,2.036486 11.10806,3.147721 16.29177,6.480161 4.53575,2.869523 6.14786,6.171226 6.14786,10.244197 0,1.281072 0.34909,4.44951 0.0516,6.35799 -0.16164,1.03672 -0.70065,1.01795 -1.14443,1.13088 -1.43306,0.36467 -1.0247,-1.38846 -1.5919,-5.636714 -1.9439,-6.016758 -7.62795,-9.874467 -21.32775,-13.577124 -4.81343,-1.295955 -9.16405,-2.961834 -9.71945,-3.887474 -1.94387,-2.591812 -1.38883,-5.831552 1.48072,-8.701173 2.22157,-2.128991 3.51751,-2.684803 6.94244,-2.684803 z m -10.1981,36.587688 c -2.18832,0.01 -4.357913,0.27722 -6.463812,0.80949 -19.161187,4.7209 -27.306937,26.38143 -15.643599,41.65478 6.942456,9.16409 22.678461,9.34871 27.491891,0.46243 2.68444,-5.09122 1.97519,-9.48859 -1.48069,-13.42256 -2.94902,-3.35695 -6.770981,-4.16664 -8.507237,-1.7506 -1.281655,1.86742 -0.557028,3.82512 2.02174,5.20414 4.350597,2.12909 2.411747,6.35945 -2.679367,6.35945 -1.851328,0 -3.701568,-1.01951 -5.830598,-3.1485 -3.887766,-3.88776 -4.258129,-8.79251 -1.018311,-13.51341 6.757318,-9.99713 21.196753,-8.05451 27.306133,3.7939 3.05468,5.73914 2.59177,16.29237 -1.01833,22.40173 -9.5343,16.2916 -32.860655,21.19761 -52.854957,11.10798 -5.739104,-2.86962 -13.792455,-10.36686 -17.680241,-16.47622 -3.147244,-4.90601 -6.479188,-13.51536 -7.404848,-19.2545 -0.277701,-1.85128 -1.017873,-3.42514 -1.480703,-3.42514 -2.036447,0 -13.422919,6.66566 -17.495832,10.18321 l -4.073274,3.60956 1.482055,3.05493 c 3.795212,7.96064 17.587045,23.5118 25.825446,29.15834 21.105079,14.44032 45.635271,17.21724 66.277504,7.31262 8.5161,-4.07288 17.86548,-12.77425 21.47556,-20.08696 8.60865,-17.30993 4.81298,-36.74915 -9.25707,-47.48681 -5.69282,-4.30429 -12.42649,-6.57821 -18.99146,-6.54786 z"
     sodipodi:nodetypes="scscccccccccccccccccccccccscccccsccccscccsscsccccccccssccsscsscsccssscscsscsscsccccccssccccsssccccsscccsccssccccccscccccccs" /></svg>
